<svg xmlns="http://www.w3.org/2000/svg" xmlns:xlink="http://www.w3.org/1999/xlink" id="Layer_2" data-name="Layer 2" viewBox="0 0 55.4 83.89"><defs><style>      .cls-1 {        fill: url(#radial-gradient-7);      }      .cls-2 {        fill: url(#radial-gradient-10);      }      .cls-3 {        fill: url(#radial-gradient-16);      }      .cls-4 {        fill: url(#radial-gradient-8);      }      .cls-5 {        fill: url(#radial-gradient-5);      }      .cls-6 {        clip-path: url(#clippath-2);      }      .cls-7 {        fill: url(#radial-gradient-4);      }      .cls-8 {        clip-path: url(#clippath-6);      }      .cls-9 {        clip-path: url(#clippath-7);      }      .cls-10 {        fill: url(#radial-gradient-6);      }      .cls-11 {        fill: url(#radial-gradient-12);      }      .cls-12 {        clip-path: url(#clippath-1);      }      .cls-13 {        clip-path: url(#clippath-4);      }      .cls-14 {        fill: url(#radial-gradient);      }      .cls-15 {        fill: url(#radial-gradient-13);      }      .cls-16 {        fill: url(#radial-gradient-15);      }      .cls-17 {        clip-path: url(#clippath);      }      .cls-18 {        fill: url(#radial-gradient-2);      }      .cls-19 {        fill: none;      }      .cls-20 {        fill: url(#radial-gradient-3);      }      .cls-21 {        clip-path: url(#clippath-3);      }      .cls-22 {        fill: #ceb481;      }      .cls-23 {        fill: url(#radial-gradient-14);      }      .cls-24 {        clip-path: url(#clippath-5);      }      .cls-25 {        fill: url(#radial-gradient-11);      }      .cls-26 {        fill: url(#radial-gradient-9);      }    </style><radialGradient id="radial-gradient" cx="28" cy="759.24" fx="28" fy="759.24" r="14.67" gradientTransform="translate(0 832.11) scale(1 -1)" gradientUnits="userSpaceOnUse"><stop offset="0" stop-color="#077f60"></stop><stop offset="0" stop-color="#077f60"></stop><stop offset=".48" stop-color="#097e5f"></stop><stop offset=".65" stop-color="#02775d"></stop><stop offset=".78" stop-color="#016b59"></stop><stop offset=".88" stop-color="#015a54"></stop><stop offset=".96" stop-color="#02434c"></stop><stop offset="1" stop-color="#023849"></stop><stop offset="1" stop-color="#023849"></stop></radialGradient><clipPath id="clippath"><path class="cls-19" d="m21.67,75.33l6.29-4.8,6.34,4.77c-1.93.92-4.08,1.43-6.35,1.43s-4.37-.5-6.28-1.39m-5.56-4.49l-5.69,4.34c1.43,1.87,3.15,3.52,5.09,4.85,3.54,2.43,7.82,3.84,12.44,3.84s8.99-1.45,12.55-3.93c1.94-1.34,3.65-3,5.06-4.88l-5.72-4.3-11.87-8.93-.03.03-.03-.04-11.8,9.01Z"></path></clipPath><radialGradient id="radial-gradient-2" cx="27.99" cy="759.25" fx="27.99" fy="759.25" r="14.67" xlink:href="#radial-gradient"></radialGradient><radialGradient id="radial-gradient-3" cx="27.7" cy="772.6" fx="27.7" fy="772.6" r="23.96" xlink:href="#radial-gradient"></radialGradient><clipPath id="clippath-1"><path class="cls-19" d="m35.5,55.31l-6.23-4.67h0l-.15-.11c-.24-.19-.51-.31-.78-.41-.02,0-.03,0-.05-.02h-.03c-.8-.23-1.71-.09-2.42.46l-.2.15h0l-6.23,4.8L0,40.54v8.27l14.26,10.69L0,70.49v8.54l19.88-15.33,5.56-4.28,2.1-1.62,2.42,1.8,5.61,4.21,19.82,14.85v-8.45l-14.26-10.69,14.26-11v-8.54l-19.88,15.32h-.01Z"></path></clipPath><radialGradient id="radial-gradient-4" cx="27.69" cy="772.6" fx="27.69" fy="772.6" r="23.96" xlink:href="#radial-gradient"></radialGradient><radialGradient id="radial-gradient-5" cx="27.3" cy="813.33" fx="27.3" fy="813.33" r="13.29" xlink:href="#radial-gradient"></radialGradient><clipPath id="clippath-2"><path class="cls-19" d="m26.83.47v36.63c0,.26.21.47.47.47s.47-.21.47-.47V.47c0-.26-.21-.47-.47-.47s-.47.21-.47.47"></path></clipPath><radialGradient id="radial-gradient-6" cx="27.3" cy="813.32" fx="27.3" fy="813.32" r="13.29" xlink:href="#radial-gradient"></radialGradient><radialGradient id="radial-gradient-7" cx="29.26" cy="813.31" fx="29.26" fy="813.31" r="11.74" xlink:href="#radial-gradient"></radialGradient><clipPath id="clippath-3"><path class="cls-19" d="m28.79,2.68v32.24c0,.26.21.47.47.47s.47-.21.47-.47V2.68c0-.26-.21-.47-.47-.47s-.47.21-.47.47"></path></clipPath><radialGradient id="radial-gradient-8" cx="29.26" cy="813.31" fx="29.26" fy="813.31" r="11.74" xlink:href="#radial-gradient"></radialGradient><radialGradient id="radial-gradient-9" cx="25.34" cy="813.33" fx="25.34" fy="813.33" r="11.72" xlink:href="#radial-gradient"></radialGradient><clipPath id="clippath-4"><path class="cls-19" d="m24.87,2.68v32.2c0,.26.21.47.47.47s.47-.21.47-.47V2.68c0-.26-.21-.47-.47-.47s-.47.21-.47.47"></path></clipPath><radialGradient id="radial-gradient-10" cx="25.34" cy="813.33" fx="25.34" fy="813.33" r="11.73" xlink:href="#radial-gradient"></radialGradient><radialGradient id="radial-gradient-11" cx="26.99" cy="795.61" fx="26.99" fy="795.61" r="13.35" xlink:href="#radial-gradient"></radialGradient><clipPath id="clippath-5"><polygon class="cls-19" points="27.3 42.7 19.28 35.53 17.66 34.06 17.66 34.09 9.63 42.97 10.34 43.6 17.74 35.41 26.64 43.37 27.3 43.94 28.27 43.13 44.35 29.8 43.75 29.07 27.3 42.7"></polygon></clipPath><radialGradient id="radial-gradient-12" cx="26.99" cy="795.61" fx="26.99" fy="795.61" r="24.58" gradientTransform="translate(-501.67 631.67) rotate(39.67) scale(1 -1)" xlink:href="#radial-gradient"></radialGradient><radialGradient id="radial-gradient-13" cx="28.41" cy="793.44" fx="28.41" fy="793.44" r="13.46" xlink:href="#radial-gradient"></radialGradient><clipPath id="clippath-6"><polygon class="cls-19" points="27.32 45.42 19.17 38.14 17.79 36.92 11.12 44.29 11.84 44.93 17.86 38.24 26.68 46.15 27.31 46.66 28.03 46.07 45.69 31.41 45.09 30.68 27.32 45.42"></polygon></clipPath><radialGradient id="radial-gradient-14" cx="28.41" cy="793.43" fx="28.41" fy="793.43" r="25.06" gradientTransform="translate(-499.96 631.28) rotate(39.67) scale(1 -1)" xlink:href="#radial-gradient"></radialGradient><radialGradient id="radial-gradient-15" cx="25.56" cy="797.26" fx="25.56" fy="797.26" r="13.4" xlink:href="#radial-gradient"></radialGradient><clipPath id="clippath-7"><polygon class="cls-19" points="27.3 39.99 17.46 31.27 8.11 41.62 8.81 42.23 17.53 32.59 27.3 41.11 28.53 40.21 43.01 28.19 42.42 27.46 27.3 39.99"></polygon></clipPath><radialGradient id="radial-gradient-16" cx="25.57" cy="797.25" fx="25.57" fy="797.25" r="24.62" gradientTransform="translate(-503.05 632.2) rotate(39.67) scale(1 -1)" xlink:href="#radial-gradient"></radialGradient></defs><g id="Layer_1-2" data-name="Layer 1"><g><g><path class="cls-14" d="m21.67,75.33l6.29-4.8,6.34,4.77c-1.93.92-4.08,1.43-6.35,1.43s-4.37-.5-6.28-1.39m-5.56-4.49l-5.69,4.34c1.43,1.87,3.15,3.52,5.09,4.85,3.54,2.43,7.82,3.84,12.44,3.84s8.99-1.45,12.55-3.93c1.94-1.34,3.65-3,5.06-4.88l-5.72-4.3-11.87-8.93-.03.03-.03-.04-11.8,9.01Z"></path><g class="cls-17"><rect class="cls-18" x="10.41" y="61.83" width="35.14" height="22.05"></rect></g></g><g><path class="cls-20" d="m35.5,55.31l-6.23-4.67h0l-.15-.11c-.24-.19-.51-.31-.78-.41-.02,0-.03,0-.05-.02h-.03c-.8-.23-1.71-.09-2.42.46l-.2.15h0l-6.23,4.8L0,40.54v8.27l14.26,10.69L0,70.49v8.54l19.88-15.33,5.56-4.28,2.1-1.62,2.42,1.8,5.61,4.21,19.82,14.85v-8.45l-14.26-10.69,14.26-11v-8.54l-19.88,15.32h-.01Z"></path><g class="cls-12"><rect class="cls-7" x="-.01" y="39.99" width="55.4" height="39.04"></rect></g></g><g><rect class="cls-22" x="14.33" y="42.65" width="6.22" height="6.22" transform="translate(-28.22 28.05) rotate(-47.94)"></rect><rect class="cls-22" x="3.39" y="32.92" width="6.22" height="6.22" transform="translate(-24.71 16.88) rotate(-48.24)"></rect><rect class="cls-22" x="44.02" y="35.33" width="6.22" height="6.22" transform="translate(-13.68 38.07) rotate(-38.85)"></rect><rect class="cls-22" x="35.78" y="41.87" width="6.22" height="6.22" transform="translate(-20.14 37.79) rotate(-42.21)"></rect></g><g><path class="cls-5" d="m26.83.47v36.63c0,.26.21.47.47.47s.47-.21.47-.47V.47c0-.26-.21-.47-.47-.47s-.47.21-.47.47"></path><g class="cls-6"><rect class="cls-10" x="26.83" width=".95" height="37.58"></rect></g></g><g><path class="cls-1" d="m28.79,2.68v32.24c0,.26.21.47.47.47s.47-.21.47-.47V2.68c0-.26-.21-.47-.47-.47s-.47.21-.47.47"></path><g class="cls-21"><rect class="cls-4" x="28.79" y="2.21" width=".95" height="33.19"></rect></g></g><g><path class="cls-26" d="m24.87,2.68v32.2c0,.26.21.47.47.47s.47-.21.47-.47V2.68c0-.26-.21-.47-.47-.47s-.47.21-.47.47"></path><g class="cls-13"><rect class="cls-2" x="24.87" y="2.21" width=".95" height="33.15"></rect></g></g><g><polygon class="cls-25" points="27.3 42.7 19.28 35.53 17.66 34.06 17.66 34.09 9.63 42.97 10.34 43.6 17.74 35.41 26.64 43.37 27.3 43.94 28.27 43.13 44.35 29.8 43.75 29.07 27.3 42.7"></polygon><g class="cls-24"><rect class="cls-11" x="8.88" y="19.69" width="36.21" height="33.61" transform="translate(-17.08 25.63) rotate(-39.67)"></rect></g></g><g><polygon class="cls-15" points="27.32 45.42 19.17 38.14 17.79 36.92 11.12 44.29 11.84 44.93 17.86 38.24 26.68 46.15 27.31 46.66 28.03 46.07 45.69 31.41 45.09 30.68 27.32 45.42"></polygon><g class="cls-8"><rect class="cls-23" x="10" y="21.49" width="36.81" height="34.37" transform="translate(-18.15 27.04) rotate(-39.67)"></rect></g></g><g><polygon class="cls-16" points="27.3 39.99 17.46 31.27 8.11 41.62 8.81 42.23 17.53 32.59 27.3 41.11 28.53 40.21 43.01 28.19 42.42 27.46 27.3 39.99"></polygon><g class="cls-9"><rect class="cls-3" x="7.42" y="18.02" width="36.3" height="33.65" transform="translate(-16.36 24.35) rotate(-39.67)"></rect></g></g></g></g></svg>